<svg xmlns="http://www.w3.org/2000/svg" xmlns:xlink="http://www.w3.org/1999/xlink" width="1080" zoomAndPan="magnify" viewBox="0 0 810 1012.49997" height="1350" preserveAspectRatio="xMidYMid meet" version="1.0"><path fill="#000000" d="M 455.160156 52.382812 L 505.59375 90.117188 C 519.386719 100.4375 533.902344 105.71875 551.105469 106.675781 L 614 110.175781 C 651.664062 112.269531 682.25 137.925781 690.851562 174.636719 L 705.222656 235.949219 C 709.148438 252.71875 716.875 266.09375 729.4375 277.878906 L 775.367188 320.972656 C 802.871094 346.777344 809.804688 386.085938 792.789062 419.738281 L 764.371094 475.9375 C 756.597656 491.308594 753.917969 506.519531 755.960938 523.617188 L 763.4375 586.144531 C 767.914062 623.582031 747.949219 658.148438 713.277344 672.996094 L 655.367188 697.785156 C 639.53125 704.566406 627.695312 714.492188 618.269531 728.90625 L 583.789062 781.609375 C 563.144531 813.164062 525.625 826.816406 489.515625 815.910156 L 429.214844 797.691406 C 412.722656 792.707031 397.273438 792.707031 380.78125 797.691406 L 320.480469 815.910156 C 284.375 826.816406 246.855469 813.164062 226.210938 781.609375 L 191.730469 728.90625 C 182.300781 714.492188 170.464844 704.566406 154.628906 697.789062 L 96.722656 672.992188 C 62.050781 658.148438 42.085938 623.582031 46.5625 586.140625 L 54.039062 523.613281 C 56.082031 506.515625 53.402344 491.304688 45.628906 475.9375 L 17.207031 419.734375 C 0.191406 386.085938 7.128906 346.777344 34.628906 320.972656 L 80.5625 277.875 C 93.125 266.089844 100.847656 252.714844 104.777344 235.949219 L 119.144531 174.636719 C 127.75 137.921875 158.335938 112.265625 195.996094 110.171875 L 258.894531 106.675781 C 276.097656 105.71875 290.613281 100.4375 304.40625 90.117188 L 354.835938 52.378906 C 385.035156 29.785156 424.964844 29.785156 455.160156 52.382812 Z M 372.832031 449.125 L 318.101562 394.414062 C 303.917969 380.238281 280.910156 380.238281 266.722656 394.414062 C 252.539062 408.59375 252.539062 431.59375 266.722656 445.773438 L 347.222656 526.238281 C 361.402344 540.417969 384.414062 540.417969 398.597656 526.238281 C 447.117188 477.738281 495.085938 428.691406 543.378906 379.964844 C 557.460938 365.757812 557.417969 342.828125 543.222656 328.71875 C 529.023438 314.605469 506.023438 314.644531 491.929688 328.878906 Z M 405 154.9375 C 329.703125 154.9375 261.53125 185.449219 212.183594 234.777344 C 162.835938 284.105469 132.3125 352.253906 132.3125 427.523438 C 132.3125 502.796875 162.835938 570.945312 212.183594 620.273438 C 261.527344 669.601562 329.699219 700.113281 405 700.113281 C 480.296875 700.113281 548.472656 669.601562 597.816406 620.273438 C 647.164062 570.945312 677.683594 502.796875 677.683594 427.523438 C 677.683594 352.253906 647.164062 284.105469 597.816406 234.777344 C 548.472656 185.449219 480.300781 154.9375 405 154.9375 Z M 576.074219 256.515625 C 532.292969 212.75 471.808594 185.679688 405 185.679688 C 338.191406 185.679688 277.707031 212.75 233.925781 256.515625 C 190.148438 300.28125 163.066406 360.742188 163.066406 427.527344 C 163.066406 494.3125 190.144531 554.773438 233.925781 598.539062 C 277.707031 642.304688 338.191406 669.375 405 669.375 C 471.808594 669.375 532.292969 642.304688 576.074219 598.539062 C 619.851562 554.773438 646.933594 494.3125 646.933594 427.527344 C 646.933594 360.742188 619.851562 300.28125 576.074219 256.515625 Z M 507.464844 850.128906 L 567.230469 978.457031 C 568.160156 980.453125 569.996094 981.683594 572.199219 981.785156 C 574.398438 981.882812 576.339844 980.828125 577.445312 978.921875 L 622.023438 902.238281 L 709.421875 917.503906 C 711.59375 917.882812 713.652344 917.082031 714.992188 915.332031 C 716.332031 913.582031 716.574219 911.390625 715.644531 909.390625 L 641.328125 749.824219 L 609.527344 798.433594 C 586.574219 833.515625 547.707031 852.507812 507.464844 850.128906 Z M 304.84375 849.96875 C 263.78125 853.226562 223.863281 834.183594 200.472656 798.433594 L 169.976562 751.820312 L 96.589844 909.390625 C 95.660156 911.390625 95.902344 913.585938 97.242188 915.332031 C 98.582031 917.082031 100.640625 917.882812 102.8125 917.503906 L 190.210938 902.238281 L 234.789062 978.921875 C 235.898438 980.824219 237.835938 981.882812 240.039062 981.78125 C 242.238281 981.683594 244.074219 980.453125 245.003906 978.457031 Z M 304.84375 849.96875 " fill-opacity="1" fill-rule="evenodd"/></svg>