<svg xmlns="http://www.w3.org/2000/svg" xmlns:xlink="http://www.w3.org/1999/xlink" width="794" zoomAndPan="magnify" viewBox="0 0 595.5 419.249996" height="559" preserveAspectRatio="xMidYMid meet" version="1.0"><defs><clipPath id="32edf464ab"><path d="M 18 23 L 594.71875 23 L 594.71875 408 L 18 408 Z M 18 23 " clip-rule="nonzero"/></clipPath><clipPath id="61e931d222"><path d="M 1 0.289062 L 575 0.289062 L 575 375 L 1 375 Z M 1 0.289062 " clip-rule="nonzero"/></clipPath><clipPath id="6c62c3f725"><rect x="0" width="577" y="0" height="385"/></clipPath></defs><g clip-path="url(#32edf464ab)"><g transform="matrix(1, 0, 0, 1, 18, 23)"><g clip-path="url(#6c62c3f725)"><path fill="#000000" d="M 181.746094 241.039062 L 46.300781 241.039062 C 45.953125 241.039062 45.609375 241.074219 45.269531 241.140625 C 44.929688 241.210938 44.597656 241.308594 44.277344 241.445312 C 43.957031 241.578125 43.652344 241.738281 43.363281 241.933594 C 43.074219 242.125 42.808594 242.34375 42.5625 242.589844 C 42.316406 242.835938 42.097656 243.101562 41.902344 243.390625 C 41.710938 243.679688 41.546875 243.984375 41.414062 244.304688 C 41.28125 244.625 41.183594 244.957031 41.113281 245.296875 C 41.046875 245.636719 41.011719 245.980469 41.011719 246.328125 L 41.011719 287.035156 C 41.011719 287.382812 41.046875 287.726562 41.113281 288.066406 C 41.183594 288.40625 41.28125 288.738281 41.414062 289.058594 C 41.546875 289.378906 41.710938 289.683594 41.902344 289.972656 C 42.097656 290.261719 42.316406 290.527344 42.5625 290.773438 C 42.808594 291.019531 43.074219 291.238281 43.363281 291.429688 C 43.652344 291.625 43.957031 291.785156 44.277344 291.917969 C 44.597656 292.050781 44.929688 292.152344 45.269531 292.21875 C 45.609375 292.289062 45.953125 292.320312 46.300781 292.320312 L 181.746094 292.320312 C 182.09375 292.316406 182.433594 292.277344 182.773438 292.207031 C 183.109375 292.132812 183.4375 292.03125 183.757812 291.898438 C 184.074219 291.761719 184.378906 291.597656 184.664062 291.40625 C 184.953125 291.210938 185.21875 290.992188 185.460938 290.75 C 185.707031 290.503906 185.925781 290.238281 186.117188 289.953125 C 186.3125 289.664062 186.476562 289.363281 186.609375 289.042969 C 186.746094 288.726562 186.847656 288.398438 186.917969 288.058594 C 186.992188 287.722656 187.027344 287.378906 187.035156 287.035156 L 187.035156 246.328125 C 187.035156 245.980469 187 245.636719 186.933594 245.296875 C 186.863281 244.957031 186.765625 244.625 186.632812 244.304688 C 186.5 243.984375 186.335938 243.679688 186.144531 243.390625 C 185.949219 243.101562 185.730469 242.835938 185.484375 242.589844 C 185.238281 242.34375 184.972656 242.125 184.683594 241.933594 C 184.394531 241.738281 184.089844 241.578125 183.769531 241.445312 C 183.449219 241.308594 183.117188 241.210938 182.777344 241.140625 C 182.4375 241.074219 182.09375 241.039062 181.746094 241.039062 Z M 176.460938 281.746094 L 51.585938 281.746094 L 51.585938 251.613281 L 176.460938 251.613281 Z M 176.460938 281.746094 " fill-opacity="1" fill-rule="nonzero"/><g clip-path="url(#61e931d222)"><path fill="#000000" d="M 512.910156 184.578125 L 512.910156 27.25 C 512.910156 26.359375 512.871094 25.46875 512.78125 24.582031 C 512.695312 23.695312 512.566406 22.8125 512.394531 21.941406 C 512.21875 21.066406 512.003906 20.203125 511.746094 19.347656 C 511.488281 18.496094 511.191406 17.65625 510.851562 16.832031 C 510.511719 16.007812 510.132812 15.203125 509.710938 14.414062 C 509.292969 13.628906 508.835938 12.863281 508.34375 12.121094 C 507.847656 11.378906 507.320312 10.664062 506.753906 9.972656 C 506.191406 9.285156 505.59375 8.625 504.964844 7.992188 C 504.335938 7.359375 503.675781 6.761719 502.988281 6.195312 C 502.300781 5.628906 501.585938 5.09375 500.847656 4.597656 C 500.105469 4.101562 499.34375 3.640625 498.558594 3.21875 C 497.773438 2.796875 496.96875 2.414062 496.148438 2.070312 C 495.324219 1.730469 494.488281 1.425781 493.636719 1.164062 C 492.78125 0.90625 491.917969 0.6875 491.046875 0.507812 C 490.171875 0.332031 489.292969 0.199219 488.40625 0.109375 C 487.519531 0.0195312 486.628906 -0.0273438 485.738281 -0.0273438 L 28.960938 -0.0273438 C 28.066406 -0.0273438 27.175781 0.0195312 26.289062 0.109375 C 25.398438 0.199219 24.515625 0.328125 23.640625 0.503906 C 22.765625 0.679688 21.902344 0.898438 21.046875 1.160156 C 20.191406 1.421875 19.355469 1.722656 18.53125 2.0625 C 17.703125 2.40625 16.898438 2.789062 16.113281 3.210938 C 15.324219 3.632812 14.558594 4.089844 13.816406 4.585938 C 13.078125 5.085938 12.359375 5.617188 11.671875 6.183594 C 10.980469 6.75 10.320312 7.347656 9.6875 7.980469 C 9.054688 8.609375 8.457031 9.269531 7.890625 9.960938 C 7.324219 10.652344 6.792969 11.367188 6.296875 12.109375 C 5.800781 12.851562 5.339844 13.617188 4.917969 14.402344 C 4.496094 15.191406 4.117188 15.996094 3.773438 16.820312 C 3.429688 17.644531 3.128906 18.484375 2.867188 19.339844 C 2.609375 20.191406 2.390625 21.058594 2.214844 21.933594 C 2.039062 22.808594 1.90625 23.691406 1.816406 24.578125 C 1.726562 25.464844 1.679688 26.355469 1.679688 27.25 L 1.679688 303.210938 C 1.679688 304.105469 1.726562 304.996094 1.816406 305.882812 C 1.90625 306.773438 2.039062 307.652344 2.214844 308.527344 C 2.390625 309.40625 2.609375 310.269531 2.867188 311.125 C 3.128906 311.976562 3.429688 312.816406 3.773438 313.640625 C 4.117188 314.464844 4.496094 315.269531 4.917969 316.058594 C 5.339844 316.84375 5.800781 317.609375 6.296875 318.351562 C 6.792969 319.09375 7.324219 319.808594 7.890625 320.5 C 8.457031 321.191406 9.058594 321.851562 9.6875 322.480469 C 10.320312 323.113281 10.980469 323.710938 11.671875 324.28125 C 12.359375 324.847656 13.078125 325.378906 13.816406 325.875 C 14.558594 326.371094 15.324219 326.828125 16.113281 327.25 C 16.898438 327.671875 17.703125 328.054688 18.53125 328.398438 C 19.355469 328.738281 20.191406 329.042969 21.046875 329.300781 C 21.902344 329.5625 22.765625 329.78125 23.640625 329.957031 C 24.515625 330.132812 25.398438 330.265625 26.289062 330.355469 C 27.175781 330.441406 28.066406 330.488281 28.960938 330.492188 L 393.429688 330.492188 C 394.878906 332.691406 396.414062 334.828125 398.035156 336.90625 C 399.65625 338.980469 401.355469 340.988281 403.136719 342.929688 C 404.917969 344.871094 406.773438 346.738281 408.703125 348.527344 C 410.636719 350.320312 412.632812 352.03125 414.703125 353.664062 C 416.769531 355.296875 418.898438 356.839844 421.089844 358.304688 C 423.28125 359.765625 425.527344 361.136719 427.828125 362.417969 C 430.132812 363.699219 432.480469 364.886719 434.875 365.980469 C 437.273438 367.074219 439.707031 368.070312 442.183594 368.96875 C 444.660156 369.867188 447.167969 370.664062 449.707031 371.359375 C 452.25 372.058594 454.8125 372.652344 457.398438 373.144531 C 459.988281 373.636719 462.589844 374.027344 465.210938 374.3125 C 467.828125 374.59375 470.453125 374.773438 473.085938 374.847656 C 475.71875 374.921875 478.351562 374.890625 480.980469 374.753906 C 483.613281 374.617188 486.234375 374.375 488.84375 374.027344 C 491.453125 373.679688 494.046875 373.230469 496.621094 372.675781 C 499.199219 372.121094 501.746094 371.464844 504.269531 370.707031 C 506.792969 369.949219 509.28125 369.089844 511.734375 368.132812 C 514.1875 367.175781 516.597656 366.121094 518.96875 364.972656 C 521.335938 363.820312 523.65625 362.578125 525.925781 361.242188 C 528.195312 359.902344 530.410156 358.480469 532.566406 356.964844 C 534.722656 355.453125 536.8125 353.855469 538.839844 352.175781 C 540.867188 350.492188 542.828125 348.734375 544.714844 346.898438 C 546.601562 345.058594 548.410156 343.148438 550.144531 341.167969 C 551.878906 339.183594 553.53125 337.136719 555.101562 335.019531 C 556.671875 332.90625 558.15625 330.730469 559.550781 328.496094 C 560.945312 326.265625 562.25 323.980469 563.464844 321.640625 C 564.679688 319.304688 565.796875 316.921875 566.816406 314.492188 C 567.839844 312.066406 568.765625 309.601562 569.589844 307.097656 C 570.414062 304.597656 571.136719 302.066406 571.761719 299.507812 C 572.382812 296.949219 572.902344 294.367188 573.316406 291.769531 C 573.734375 289.167969 574.042969 286.554688 574.25 283.929688 C 574.457031 281.300781 574.558594 278.671875 574.554688 276.039062 C 574.546875 273.601562 574.449219 271.167969 574.257812 268.738281 C 574.070312 266.308594 573.792969 263.886719 573.425781 261.476562 C 573.058594 259.066406 572.605469 256.675781 572.0625 254.296875 C 571.519531 251.921875 570.886719 249.570312 570.171875 247.238281 C 569.453125 244.910156 568.652344 242.609375 567.765625 240.339844 C 566.882812 238.066406 565.914062 235.832031 564.863281 233.632812 C 563.8125 231.433594 562.679688 229.277344 561.472656 227.160156 C 560.261719 225.042969 558.976562 222.976562 557.613281 220.953125 C 556.25 218.933594 554.816406 216.964844 553.308594 215.050781 C 551.800781 213.132812 550.226562 211.277344 548.582031 209.476562 C 546.9375 207.679688 545.226562 205.941406 543.457031 204.269531 C 541.683594 202.59375 539.851562 200.988281 537.960938 199.449219 C 536.070312 197.910156 534.125 196.445312 532.128906 195.050781 C 530.128906 193.65625 528.082031 192.335938 525.984375 191.089844 C 523.890625 189.847656 521.75 188.679688 519.566406 187.59375 C 517.386719 186.507812 515.167969 185.503906 512.910156 184.578125 Z M 12.253906 27.25 C 12.253906 26.703125 12.28125 26.15625 12.335938 25.613281 C 12.390625 25.070312 12.472656 24.527344 12.578125 23.992188 C 12.6875 23.457031 12.820312 22.925781 12.980469 22.402344 C 13.140625 21.882812 13.324219 21.367188 13.53125 20.863281 C 13.742188 20.355469 13.976562 19.863281 14.234375 19.382812 C 14.492188 18.898438 14.773438 18.429688 15.078125 17.976562 C 15.382812 17.523438 15.707031 17.082031 16.054688 16.660156 C 16.402344 16.238281 16.769531 15.832031 17.15625 15.445312 C 17.542969 15.058594 17.945312 14.691406 18.371094 14.347656 C 18.792969 14 19.230469 13.671875 19.683594 13.371094 C 20.140625 13.066406 20.609375 12.785156 21.089844 12.527344 C 21.574219 12.269531 22.066406 12.035156 22.570312 11.824219 C 23.074219 11.613281 23.589844 11.429688 24.113281 11.269531 C 24.636719 11.109375 25.164062 10.976562 25.703125 10.871094 C 26.238281 10.761719 26.777344 10.683594 27.324219 10.628906 C 27.867188 10.574219 28.414062 10.546875 28.960938 10.542969 L 485.738281 10.542969 C 486.28125 10.546875 486.828125 10.574219 487.371094 10.628906 C 487.914062 10.683594 488.449219 10.765625 488.984375 10.875 C 489.519531 10.984375 490.046875 11.117188 490.570312 11.277344 C 491.089844 11.4375 491.601562 11.621094 492.105469 11.832031 C 492.609375 12.042969 493.101562 12.277344 493.582031 12.535156 C 494.0625 12.792969 494.527344 13.074219 494.980469 13.378906 C 495.433594 13.683594 495.871094 14.011719 496.289062 14.359375 C 496.710938 14.707031 497.113281 15.070312 497.496094 15.460938 C 497.882812 15.847656 498.246094 16.25 498.589844 16.671875 C 498.9375 17.097656 499.257812 17.535156 499.5625 17.988281 C 499.863281 18.445312 500.140625 18.910156 500.394531 19.394531 C 500.652344 19.875 500.882812 20.367188 501.089844 20.875 C 501.296875 21.378906 501.480469 21.890625 501.636719 22.414062 C 501.792969 22.9375 501.921875 23.464844 502.027344 24 C 502.132812 24.535156 502.210938 25.074219 502.261719 25.617188 C 502.316406 26.160156 502.339844 26.703125 502.335938 27.25 L 502.335938 54.847656 L 12.253906 54.847656 Z M 28.960938 319.917969 C 28.414062 319.917969 27.867188 319.886719 27.324219 319.835938 C 26.777344 319.78125 26.238281 319.699219 25.703125 319.589844 C 25.164062 319.484375 24.636719 319.351562 24.113281 319.191406 C 23.589844 319.03125 23.074219 318.847656 22.570312 318.636719 C 22.066406 318.425781 21.574219 318.195312 21.089844 317.933594 C 20.609375 317.675781 20.140625 317.394531 19.683594 317.09375 C 19.230469 316.789062 18.792969 316.460938 18.371094 316.117188 C 17.945312 315.769531 17.542969 315.402344 17.15625 315.015625 C 16.769531 314.628906 16.402344 314.222656 16.054688 313.800781 C 15.707031 313.378906 15.382812 312.941406 15.078125 312.484375 C 14.773438 312.03125 14.492188 311.5625 14.234375 311.082031 C 13.976562 310.597656 13.742188 310.105469 13.53125 309.601562 C 13.324219 309.09375 13.140625 308.582031 12.980469 308.058594 C 12.820312 307.535156 12.6875 307.003906 12.578125 306.46875 C 12.472656 305.933594 12.390625 305.390625 12.335938 304.847656 C 12.28125 304.304688 12.253906 303.757812 12.253906 303.210938 L 12.253906 110.039062 L 502.335938 110.039062 L 502.335938 180.878906 C 502.230469 180.878906 502.125 180.773438 501.914062 180.773438 C 498.125 179.734375 494.285156 178.957031 490.390625 178.449219 C 489.4375 178.234375 488.59375 178.128906 487.746094 178.023438 C 483.742188 177.566406 479.722656 177.320312 475.691406 177.285156 C 474.078125 177.285156 472.460938 177.328125 470.847656 177.410156 C 469.234375 177.488281 467.625 177.609375 466.015625 177.769531 C 464.410156 177.929688 462.804688 178.128906 461.207031 178.367188 C 459.609375 178.605469 458.019531 178.882812 456.433594 179.199219 C 454.847656 179.519531 453.273438 179.871094 451.707031 180.265625 C 450.140625 180.660156 448.582031 181.09375 447.039062 181.5625 C 445.492188 182.03125 443.957031 182.539062 442.4375 183.085938 C 440.917969 183.632812 439.410156 184.214844 437.917969 184.832031 C 436.425781 185.453125 434.949219 186.105469 433.488281 186.796875 C 432.027344 187.488281 430.585938 188.21875 429.160156 188.980469 C 427.738281 189.742188 426.332031 190.539062 424.945312 191.371094 C 423.5625 192.199219 422.195312 193.066406 420.851562 193.964844 C 419.511719 194.859375 418.191406 195.792969 416.890625 196.753906 C 415.59375 197.71875 414.320312 198.710938 413.074219 199.734375 C 411.824219 200.761719 410.601562 201.816406 409.402344 202.902344 C 408.207031 203.988281 407.039062 205.101562 405.894531 206.242188 C 404.753906 207.386719 403.636719 208.554688 402.554688 209.753906 C 401.46875 210.949219 400.414062 212.171875 399.386719 213.421875 C 398.363281 214.667969 397.367188 215.941406 396.40625 217.238281 C 395.441406 218.539062 394.511719 219.859375 393.613281 221.199219 C 392.714844 222.542969 391.851562 223.910156 391.019531 225.292969 C 390.191406 226.679688 389.394531 228.085938 388.628906 229.507812 C 387.867188 230.933594 387.140625 232.375 386.449219 233.835938 C 385.757812 235.296875 385.101562 236.773438 384.484375 238.265625 C 383.863281 239.757812 383.28125 241.265625 382.738281 242.785156 C 382.191406 244.304688 381.683594 245.839844 381.214844 247.382812 C 380.742188 248.929688 380.3125 250.488281 379.917969 252.054688 C 379.523438 253.621094 379.167969 255.195312 378.851562 256.78125 C 378.535156 258.363281 378.257812 259.957031 378.019531 261.554688 C 377.78125 263.152344 377.582031 264.753906 377.421875 266.363281 C 377.261719 267.96875 377.140625 269.582031 377.058594 271.195312 C 376.980469 272.808594 376.9375 274.421875 376.933594 276.039062 C 376.953125 280.285156 377.234375 284.515625 377.78125 288.726562 C 377.886719 289.996094 378.203125 291.371094 378.414062 292.636719 C 378.945312 295.492188 379.472656 298.347656 380.214844 301.097656 C 380.636719 302.578125 381.058594 304.164062 381.585938 305.644531 C 382.363281 308.230469 383.28125 310.769531 384.335938 313.257812 C 384.867188 314.738281 385.5 316.109375 386.132812 317.589844 C 386.453125 318.332031 386.769531 319.175781 387.085938 319.917969 Z M 475.691406 364.324219 C 474.09375 364.320312 472.492188 364.269531 470.894531 364.175781 C 469.296875 364.082031 467.703125 363.945312 466.113281 363.765625 C 464.523438 363.585938 462.9375 363.363281 461.359375 363.097656 C 459.78125 362.828125 458.210938 362.519531 456.648438 362.167969 C 455.085938 361.816406 453.535156 361.421875 451.996094 360.988281 C 450.457031 360.550781 448.929688 360.074219 447.414062 359.554688 C 445.902344 359.035156 444.402344 358.476562 442.917969 357.875 C 441.4375 357.273438 439.96875 356.632812 438.519531 355.953125 C 437.070312 355.273438 435.644531 354.550781 434.234375 353.792969 C 432.824219 353.035156 431.4375 352.238281 430.070312 351.40625 C 428.703125 350.570312 427.359375 349.703125 426.042969 348.792969 C 424.722656 347.886719 423.429688 346.945312 422.164062 345.96875 C 420.894531 344.992188 419.65625 343.980469 418.441406 342.933594 C 417.230469 341.890625 416.046875 340.8125 414.890625 339.703125 C 413.738281 338.59375 412.617188 337.457031 411.523438 336.285156 C 410.429688 335.113281 409.371094 333.914062 408.34375 332.6875 C 407.320312 331.460938 406.328125 330.207031 405.367188 328.921875 C 404.410156 327.640625 403.488281 326.335938 402.597656 325.003906 C 401.710938 323.671875 400.863281 322.316406 400.046875 320.9375 C 399.234375 319.558594 398.460938 318.160156 397.722656 316.738281 C 396.984375 315.316406 396.285156 313.878906 395.628906 312.417969 C 394.96875 310.960938 394.351562 309.484375 393.769531 307.992188 C 393.191406 306.5 392.65625 304.992188 392.15625 303.472656 C 391.660156 301.949219 391.207031 300.417969 390.792969 298.871094 C 390.378906 297.324219 390.007812 295.765625 389.679688 294.199219 C 389.351562 292.632812 389.066406 291.058594 388.824219 289.476562 C 388.582031 287.894531 388.382812 286.308594 388.226562 284.714844 C 388.066406 283.121094 387.957031 281.527344 387.886719 279.925781 C 387.816406 278.328125 387.789062 276.730469 387.808594 275.128906 C 387.824219 273.527344 387.886719 271.929688 387.992188 270.332031 C 388.09375 268.734375 388.242188 267.140625 388.433594 265.550781 C 388.625 263.964844 388.859375 262.378906 389.136719 260.804688 C 389.414062 259.226562 389.734375 257.660156 390.097656 256.101562 C 390.460938 254.542969 390.863281 252.996094 391.3125 251.457031 C 391.757812 249.921875 392.246094 248.398438 392.777344 246.886719 C 393.304688 245.375 393.875 243.882812 394.488281 242.402344 C 395.097656 240.921875 395.75 239.460938 396.441406 238.015625 C 397.132812 236.574219 397.859375 235.148438 398.628906 233.746094 C 399.398438 232.339844 400.203125 230.957031 401.046875 229.597656 C 401.890625 228.238281 402.769531 226.902344 403.683594 225.589844 C 404.601562 224.277344 405.550781 222.992188 406.539062 221.730469 C 407.523438 220.46875 408.542969 219.234375 409.597656 218.03125 C 410.652344 216.824219 411.738281 215.648438 412.855469 214.503906 C 413.972656 213.359375 415.117188 212.242188 416.296875 211.160156 C 417.472656 210.074219 418.679688 209.023438 419.917969 208.007812 C 421.152344 206.988281 422.414062 206.003906 423.703125 205.054688 C 424.992188 204.105469 426.304688 203.191406 427.640625 202.3125 C 428.980469 201.4375 430.34375 200.59375 431.726562 199.792969 C 433.109375 198.988281 434.515625 198.222656 435.941406 197.496094 C 437.367188 196.769531 438.8125 196.078125 440.273438 195.429688 C 441.738281 194.78125 443.21875 194.171875 444.714844 193.605469 C 446.210938 193.039062 447.722656 192.511719 449.246094 192.023438 C 450.769531 191.539062 452.308594 191.09375 453.859375 190.691406 C 455.40625 190.289062 456.964844 189.929688 458.535156 189.613281 C 460.101562 189.292969 461.679688 189.019531 463.261719 188.789062 C 464.847656 188.554688 466.4375 188.367188 468.03125 188.222656 C 469.625 188.078125 471.21875 187.976562 472.820312 187.917969 C 474.417969 187.859375 476.019531 187.84375 477.621094 187.871094 C 479.21875 187.902344 480.820312 187.972656 482.414062 188.089844 C 484.011719 188.203125 485.605469 188.363281 487.191406 188.566406 C 488.78125 188.769531 490.359375 189.011719 491.933594 189.300781 C 493.507812 189.589844 495.074219 189.921875 496.632812 190.292969 C 498.1875 190.667969 499.734375 191.082031 501.265625 191.542969 C 502.800781 192 504.320312 192.5 505.828125 193.039062 C 508.242188 193.917969 510.617188 194.898438 512.945312 195.984375 C 515.277344 197.066406 517.554688 198.253906 519.78125 199.535156 C 522.007812 200.820312 524.175781 202.199219 526.28125 203.671875 C 528.386719 205.144531 530.425781 206.707031 532.398438 208.359375 C 534.367188 210.007812 536.261719 211.742188 538.078125 213.558594 C 539.898438 215.375 541.632812 217.269531 543.289062 219.238281 C 544.941406 221.207031 546.503906 223.242188 547.980469 225.347656 C 549.457031 227.453125 550.835938 229.617188 552.121094 231.84375 C 553.410156 234.066406 554.597656 236.34375 555.683594 238.675781 C 556.769531 241.003906 557.753906 243.375 558.636719 245.789062 C 559.515625 248.207031 560.289062 250.65625 560.953125 253.136719 C 561.621094 255.621094 562.179688 258.125 562.625 260.65625 C 563.074219 263.1875 563.410156 265.734375 563.632812 268.296875 C 563.859375 270.855469 563.972656 273.421875 563.972656 275.992188 C 563.976562 278.5625 563.863281 281.128906 563.640625 283.6875 C 563.417969 286.25 563.082031 288.796875 562.636719 291.328125 C 562.191406 293.859375 561.636719 296.367188 560.972656 298.847656 C 560.308594 301.332031 559.539062 303.78125 558.660156 306.195312 C 557.78125 308.613281 556.800781 310.984375 555.714844 313.316406 C 554.628906 315.644531 553.445312 317.921875 552.160156 320.148438 C 550.875 322.375 549.496094 324.542969 548.023438 326.648438 C 546.546875 328.753906 544.984375 330.792969 543.332031 332.761719 C 541.683594 334.730469 539.949219 336.625 538.132812 338.445312 C 536.3125 340.261719 534.421875 341.996094 532.453125 343.652344 C 530.484375 345.304688 528.445312 346.867188 526.339844 348.34375 C 524.238281 349.816406 522.070312 351.199219 519.84375 352.484375 C 517.621094 353.769531 515.339844 354.957031 513.011719 356.042969 C 510.683594 357.128906 508.3125 358.113281 505.894531 358.992188 C 503.480469 359.871094 501.03125 360.644531 498.546875 361.3125 C 496.066406 361.976562 493.558594 362.53125 491.027344 362.980469 C 488.496094 363.425781 485.949219 363.761719 483.390625 363.988281 C 480.828125 364.210938 478.261719 364.324219 475.691406 364.324219 Z M 475.691406 364.324219 " fill-opacity="1" fill-rule="nonzero"/></g><path fill="#000000" d="M 495.050781 249.257812 L 471.96875 272.335938 C 471.476562 272.832031 471.09375 273.402344 470.828125 274.050781 C 470.5625 274.699219 470.425781 275.371094 470.425781 276.070312 L 470.425781 336.804688 C 470.425781 337.148438 470.460938 337.492188 470.527344 337.835938 C 470.597656 338.175781 470.695312 338.503906 470.828125 338.824219 C 470.960938 339.148438 471.125 339.453125 471.316406 339.738281 C 471.511719 340.027344 471.730469 340.296875 471.976562 340.542969 C 472.222656 340.785156 472.488281 341.003906 472.777344 341.199219 C 473.066406 341.390625 473.371094 341.554688 473.691406 341.6875 C 474.011719 341.820312 474.339844 341.921875 474.683594 341.988281 C 475.023438 342.054688 475.367188 342.089844 475.714844 342.089844 C 476.0625 342.089844 476.40625 342.054688 476.746094 341.988281 C 477.085938 341.921875 477.417969 341.820312 477.738281 341.6875 C 478.058594 341.554688 478.363281 341.390625 478.652344 341.199219 C 478.9375 341.003906 479.207031 340.785156 479.453125 340.542969 C 479.699219 340.296875 479.917969 340.027344 480.109375 339.738281 C 480.300781 339.453125 480.464844 339.148438 480.597656 338.824219 C 480.730469 338.503906 480.832031 338.175781 480.898438 337.835938 C 480.964844 337.492188 481 337.148438 481 336.804688 L 481 278.257812 L 502.527344 256.730469 C 502.765625 256.484375 502.980469 256.21875 503.164062 255.929688 C 503.351562 255.640625 503.507812 255.335938 503.636719 255.019531 C 503.761719 254.699219 503.859375 254.371094 503.921875 254.035156 C 503.984375 253.695312 504.015625 253.355469 504.011719 253.011719 C 504.007812 252.667969 503.972656 252.328125 503.902344 251.992188 C 503.835938 251.65625 503.734375 251.332031 503.601562 251.015625 C 503.46875 250.699219 503.304688 250.398438 503.113281 250.113281 C 502.921875 249.828125 502.707031 249.5625 502.464844 249.320312 C 502.222656 249.078125 501.957031 248.859375 501.671875 248.667969 C 501.386719 248.476562 501.085938 248.316406 500.769531 248.183594 C 500.453125 248.050781 500.128906 247.949219 499.789062 247.878906 C 499.453125 247.8125 499.113281 247.773438 498.769531 247.773438 C 498.429688 247.769531 498.085938 247.800781 497.75 247.863281 C 497.414062 247.925781 497.085938 248.023438 496.765625 248.148438 C 496.449219 248.277344 496.144531 248.433594 495.855469 248.621094 C 495.566406 248.804688 495.300781 249.019531 495.050781 249.257812 Z M 495.050781 249.257812 " fill-opacity="1" fill-rule="nonzero"/><path fill="#000000" d="M 46.257812 172.25 C 46.605469 172.25 46.949219 172.21875 47.289062 172.148438 C 47.628906 172.082031 47.960938 171.980469 48.28125 171.847656 C 48.601562 171.714844 48.90625 171.554688 49.195312 171.359375 C 49.484375 171.167969 49.75 170.949219 49.996094 170.703125 C 50.242188 170.457031 50.460938 170.191406 50.652344 169.902344 C 50.847656 169.613281 51.007812 169.308594 51.140625 168.988281 C 51.273438 168.667969 51.375 168.335938 51.441406 167.996094 C 51.511719 167.65625 51.542969 167.3125 51.542969 166.964844 L 51.542969 139.855469 L 108.703125 139.855469 C 109.050781 139.855469 109.394531 139.820312 109.738281 139.753906 C 110.078125 139.6875 110.40625 139.585938 110.726562 139.453125 C 111.050781 139.320312 111.355469 139.15625 111.640625 138.964844 C 111.929688 138.769531 112.199219 138.550781 112.445312 138.304688 C 112.6875 138.0625 112.90625 137.792969 113.101562 137.503906 C 113.292969 137.21875 113.457031 136.914062 113.589844 136.589844 C 113.722656 136.269531 113.824219 135.941406 113.890625 135.601562 C 113.957031 135.257812 113.992188 134.914062 113.992188 134.570312 C 113.992188 134.222656 113.957031 133.878906 113.890625 133.535156 C 113.824219 133.195312 113.722656 132.867188 113.589844 132.546875 C 113.457031 132.222656 113.292969 131.917969 113.101562 131.632812 C 112.90625 131.34375 112.6875 131.074219 112.445312 130.832031 C 112.199219 130.585938 111.929688 130.367188 111.640625 130.171875 C 111.355469 129.980469 111.050781 129.816406 110.726562 129.683594 C 110.40625 129.550781 110.078125 129.449219 109.738281 129.382812 C 109.394531 129.316406 109.050781 129.28125 108.703125 129.28125 L 46.257812 129.28125 C 45.910156 129.28125 45.566406 129.316406 45.226562 129.382812 C 44.886719 129.449219 44.554688 129.550781 44.234375 129.683594 C 43.914062 129.816406 43.609375 129.980469 43.320312 130.171875 C 43.03125 130.367188 42.765625 130.585938 42.519531 130.832031 C 42.273438 131.074219 42.054688 131.34375 41.863281 131.632812 C 41.667969 131.921875 41.507812 132.222656 41.375 132.546875 C 41.242188 132.867188 41.140625 133.195312 41.074219 133.535156 C 41.003906 133.878906 40.972656 134.222656 40.972656 134.570312 L 40.972656 166.964844 C 40.972656 167.3125 41.003906 167.65625 41.074219 167.996094 C 41.140625 168.335938 41.242188 168.667969 41.375 168.988281 C 41.507812 169.308594 41.667969 169.613281 41.863281 169.902344 C 42.054688 170.191406 42.273438 170.457031 42.519531 170.703125 C 42.765625 170.949219 43.03125 171.167969 43.320312 171.359375 C 43.609375 171.554688 43.914062 171.714844 44.234375 171.847656 C 44.554688 171.980469 44.886719 172.082031 45.226562 172.148438 C 45.566406 172.21875 45.910156 172.25 46.257812 172.25 Z M 46.257812 172.25 " fill-opacity="1" fill-rule="nonzero"/><path fill="#000000" d="M 136.070312 139.433594 C 136.703125 139.738281 137.375 139.878906 138.078125 139.855469 C 138.78125 139.863281 139.453125 139.730469 140.097656 139.453125 C 140.742188 139.179688 141.300781 138.78125 141.777344 138.269531 C 142.289062 137.789062 142.675781 137.226562 142.941406 136.578125 C 143.222656 135.9375 143.367188 135.269531 143.367188 134.570312 C 143.367188 133.867188 143.222656 133.199219 142.941406 132.558594 C 142.675781 131.910156 142.289062 131.347656 141.777344 130.867188 C 141.414062 130.5 141 130.195312 140.542969 129.953125 C 140.089844 129.707031 139.605469 129.53125 139.097656 129.429688 C 138.589844 129.324219 138.078125 129.296875 137.5625 129.34375 C 137.046875 129.390625 136.550781 129.511719 136.070312 129.703125 C 135.363281 129.929688 134.765625 130.316406 134.273438 130.867188 C 134.035156 131.113281 133.828125 131.382812 133.644531 131.667969 C 133.457031 131.957031 133.304688 132.257812 133.175781 132.574219 C 133.050781 132.894531 132.953125 133.21875 132.890625 133.554688 C 132.824219 133.890625 132.792969 134.226562 132.792969 134.570312 C 132.792969 134.910156 132.824219 135.246094 132.890625 135.582031 C 132.953125 135.917969 133.050781 136.242188 133.175781 136.5625 C 133.304688 136.878906 133.457031 137.179688 133.644531 137.46875 C 133.828125 137.753906 134.035156 138.023438 134.273438 138.269531 C 134.765625 138.820312 135.363281 139.207031 136.070312 139.433594 Z M 136.070312 139.433594 " fill-opacity="1" fill-rule="nonzero"/></g></g></g></svg>