<svg xmlns="http://www.w3.org/2000/svg" xmlns:xlink="http://www.w3.org/1999/xlink" width="2048" zoomAndPan="magnify" viewBox="0 0 1536 1535.999932" height="2048" preserveAspectRatio="xMidYMid meet" version="1.0"><path fill="#000000" d="M 768.101562 1536.207031 C 344.546875 1536.207031 0 1191.660156 0 768.101562 C 0 344.546875 344.546875 0 768.101562 0 C 1191.660156 0 1536.207031 344.546875 1536.207031 768.101562 C 1536.207031 1191.660156 1191.660156 1536.207031 768.101562 1536.207031 Z M 768.101562 61.726562 C 378.597656 61.726562 61.726562 378.597656 61.726562 768.101562 C 61.726562 1157.605469 378.597656 1474.476562 768.101562 1474.476562 C 1157.605469 1474.476562 1474.476562 1157.605469 1474.476562 768.101562 C 1474.476562 378.597656 1157.605469 61.726562 768.101562 61.726562 Z M 768.101562 61.726562 " fill-opacity="1" fill-rule="nonzero"/><path fill="#000000" d="M 1034.355469 1221.90625 L 750.40625 915.734375 L 476.847656 1190.425781 L 331.066406 1045.261719 L 610.386719 764.707031 L 338.578125 471.5 L 489.402344 331.582031 L 755.757812 618.824219 L 1040.941406 332.507812 L 1186.722656 477.671875 L 895.777344 769.851562 L 1185.179688 1082.09375 Z M 1034.355469 1221.90625 " fill-opacity="1" fill-rule="nonzero"/></svg>