<svg xmlns="http://www.w3.org/2000/svg" xmlns:xlink="http://www.w3.org/1999/xlink" width="1123" zoomAndPan="magnify" viewBox="0 0 842.25 1190.249948" height="1587" preserveAspectRatio="xMidYMid meet" version="1.0"><defs><clipPath id="3614bf5dbb"><path d="M 132 0.15625 L 705 0.15625 L 705 1179 L 132 1179 Z M 132 0.15625 " clip-rule="nonzero"/></clipPath><clipPath id="3c4cd4304d"><path d="M 1 4 L 571.6875 4 L 571.6875 1173 L 1 1173 Z M 1 4 " clip-rule="nonzero"/></clipPath><clipPath id="96d33c2ad6"><rect x="0" width="573" y="0" height="1179"/></clipPath></defs><g clip-path="url(#3614bf5dbb)"><g transform="matrix(1, 0, 0, 1, 132, 0.000000000000098033)"><g clip-path="url(#96d33c2ad6)"><g clip-path="url(#3c4cd4304d)"><path fill="#000000" d="M 497.886719 1172.136719 L 75.835938 1172.136719 C 34.703125 1172.136719 1.359375 1138.761719 1.359375 1097.609375 L 1.359375 79.144531 C 1.359375 37.992188 34.703125 4.628906 75.835938 4.628906 L 497.898438 4.628906 C 539.027344 4.628906 572.386719 37.992188 572.386719 79.144531 L 572.386719 1097.609375 C 572.375 1138.761719 539.027344 1172.136719 497.886719 1172.136719 Z M 286.867188 1147.273438 C 314.285156 1147.273438 336.515625 1125.03125 336.515625 1097.609375 C 336.515625 1070.164062 314.285156 1047.921875 286.867188 1047.921875 C 259.445312 1047.921875 237.214844 1070.164062 237.214844 1097.609375 C 237.214844 1125.03125 259.445312 1147.273438 286.867188 1147.273438 Z M 187.554688 66.730469 C 180.699219 66.730469 175.148438 72.285156 175.148438 79.144531 C 175.148438 86.003906 180.699219 91.570312 187.554688 91.570312 C 194.394531 91.570312 199.960938 86.015625 199.960938 79.144531 C 199.972656 72.285156 194.410156 66.730469 187.554688 66.730469 Z M 286.867188 17.054688 C 280.011719 17.054688 274.460938 22.609375 274.460938 29.46875 C 274.460938 36.328125 280.011719 41.894531 286.867188 41.894531 C 293.710938 41.894531 299.273438 36.339844 299.273438 29.46875 C 299.273438 22.609375 293.710938 17.054688 286.867188 17.054688 Z M 336.515625 66.730469 L 237.203125 66.730469 C 230.347656 66.730469 224.796875 72.285156 224.796875 79.144531 C 224.796875 86.003906 230.347656 91.570312 237.203125 91.570312 L 336.515625 91.570312 C 343.371094 91.570312 348.921875 86.015625 348.921875 79.144531 C 348.933594 72.285156 343.382812 66.730469 336.515625 66.730469 Z M 535.128906 128.835938 L 38.601562 128.835938 L 38.601562 1023.082031 L 535.144531 1023.082031 L 535.144531 128.835938 Z M 286.867188 1060.347656 C 307.429688 1060.347656 324.109375 1077.019531 324.109375 1097.609375 C 324.109375 1118.171875 307.429688 1134.875 286.867188 1134.875 C 266.300781 1134.875 249.621094 1118.171875 249.621094 1097.609375 C 249.621094 1077.023438 266.300781 1060.347656 286.867188 1060.347656 Z M 286.867188 1060.347656 " fill-opacity="1" fill-rule="evenodd"/></g></g></g></g></svg>