<svg xmlns="http://www.w3.org/2000/svg" xmlns:xlink="http://www.w3.org/1999/xlink" width="2380" zoomAndPan="magnify" viewBox="0 0 1784.88 1784.99993" height="2380" preserveAspectRatio="xMidYMid meet" version="1.0"><defs><clipPath id="5905c2708e"><path d="M 0 0.0585938 L 1784.761719 0.0585938 L 1784.761719 1784.9375 L 0 1784.9375 Z M 0 0.0585938 " clip-rule="nonzero"/></clipPath><clipPath id="2c0ed13234"><path d="M 0 0.0585938 L 1784.761719 0.0585938 L 1784.761719 1784.9375 L 0 1784.9375 Z M 0 0.0585938 " clip-rule="nonzero"/></clipPath><clipPath id="591bf10a23"><path d="M 313.21875 801 L 459 801 L 459 1092 L 313.21875 1092 Z M 313.21875 801 " clip-rule="nonzero"/></clipPath><clipPath id="54710ed770"><path d="M 1326 801 L 1471.96875 801 L 1471.96875 1092 L 1326 1092 Z M 1326 801 " clip-rule="nonzero"/></clipPath><clipPath id="696a7512fc"><path d="M 838 421.882812 L 947 421.882812 L 947 531 L 838 531 Z M 838 421.882812 " clip-rule="nonzero"/></clipPath><clipPath id="22278266a7"><path d="M 820 1218 L 1002 1218 L 1002 1363.132812 L 820 1363.132812 Z M 820 1218 " clip-rule="nonzero"/></clipPath><clipPath id="4dca0ba8b1"><rect x="0" width="1785" y="0" height="1785"/></clipPath></defs><g clip-path="url(#5905c2708e)"><path fill="#ffffff" d="M 0 0.0585938 L 1784.878906 0.0585938 L 1784.878906 1784.941406 L 0 1784.941406 Z M 0 0.0585938 " fill-opacity="1" fill-rule="nonzero"/><g transform="matrix(1, 0, 0, 1, 0, -0.000000000000097387)"><g clip-path="url(#4dca0ba8b1)"><g clip-path="url(#2c0ed13234)"><path fill="#950edb" d="M 0 0.0585938 L 1785 0.0585938 L 1785 1785.058594 L 0 1785.058594 Z M 0 0.0585938 " fill-opacity="1" fill-rule="nonzero"/></g><path fill="#ffffff" d="M 1055.34375 946.800781 C 1035.351562 946.800781 1019.140625 930.585938 1019.140625 910.597656 C 1019.140625 890.609375 1035.351562 874.398438 1055.34375 874.398438 C 1075.332031 874.398438 1091.542969 890.609375 1091.542969 910.597656 C 1091.542969 930.585938 1075.332031 946.800781 1055.34375 946.800781 Z M 892.4375 1064.257812 C 842.453125 1064.257812 801.933594 1031.84375 801.933594 991.855469 L 982.941406 991.855469 C 982.941406 1031.84375 942.421875 1064.257812 892.4375 1064.257812 Z M 729.53125 946.800781 C 709.542969 946.800781 693.332031 930.585938 693.332031 910.597656 C 693.332031 890.609375 709.542969 874.398438 729.53125 874.398438 C 749.523438 874.398438 765.734375 890.609375 765.734375 910.597656 C 765.734375 930.585938 749.523438 946.800781 729.53125 946.800781 Z M 1037.242188 729.59375 L 747.632812 729.59375 C 687.65625 729.59375 633.355469 753.902344 594.046875 793.214844 C 554.738281 832.519531 530.425781 886.820312 530.425781 946.800781 C 530.425781 1066.761719 627.667969 1164.003906 747.632812 1164.003906 L 1037.242188 1164.003906 C 1097.21875 1164.003906 1151.519531 1139.695312 1190.828125 1100.382812 C 1230.136719 1061.078125 1254.449219 1006.777344 1254.449219 946.800781 C 1254.449219 826.835938 1157.207031 729.59375 1037.242188 729.59375 " fill-opacity="1" fill-rule="nonzero"/><path fill="#ffffff" d="M 892.4375 1308.808594 L 783.835938 1308.808594 C 734.972656 1308.808594 687.558594 1299.238281 642.917969 1280.355469 C 599.808594 1262.117188 561.09375 1236.015625 527.855469 1202.777344 C 494.613281 1169.539062 468.515625 1130.824219 450.28125 1087.71875 C 431.398438 1043.074219 421.824219 995.660156 421.824219 946.800781 C 421.824219 897.9375 431.398438 850.523438 450.28125 805.882812 C 468.515625 762.773438 494.613281 724.058594 527.855469 690.816406 C 561.09375 657.578125 599.808594 631.480469 642.917969 613.242188 C 687.558594 594.359375 734.972656 584.789062 783.835938 584.789062 L 1001.039062 584.789062 C 1049.902344 584.789062 1097.3125 594.359375 1141.957031 613.242188 C 1185.066406 631.480469 1223.777344 657.578125 1257.019531 690.816406 C 1290.257812 724.058594 1316.359375 762.773438 1334.597656 805.882812 C 1353.480469 850.523438 1363.050781 897.9375 1363.050781 946.800781 L 1326.851562 946.800781 C 1326.851562 767.144531 1180.691406 620.988281 1001.039062 620.988281 L 783.835938 620.988281 C 604.179688 620.988281 458.023438 767.144531 458.023438 946.800781 C 458.023438 1126.453125 604.179688 1272.609375 783.835938 1272.609375 L 892.4375 1272.609375 L 892.4375 1308.808594 " fill-opacity="1" fill-rule="nonzero"/><g clip-path="url(#591bf10a23)"><path fill="#ffffff" d="M 458.023438 1091.601562 C 378.050781 1091.601562 313.222656 1026.773438 313.222656 946.800781 C 313.222656 866.824219 378.050781 801.996094 458.023438 801.996094 L 458.023438 1091.601562 " fill-opacity="1" fill-rule="nonzero"/></g><g clip-path="url(#54710ed770)"><path fill="#ffffff" d="M 1326.851562 1091.601562 C 1406.824219 1091.601562 1471.652344 1026.773438 1471.652344 946.800781 C 1471.652344 866.824219 1406.824219 801.996094 1326.851562 801.996094 L 1326.851562 1091.601562 " fill-opacity="1" fill-rule="nonzero"/></g><path fill="#ffffff" d="M 982.941406 747.695312 C 982.941406 787.679688 942.421875 820.09375 892.4375 820.09375 C 842.453125 820.09375 801.933594 787.679688 801.933594 747.695312 C 801.933594 707.707031 842.453125 675.292969 892.4375 675.292969 C 942.421875 675.292969 982.941406 707.707031 982.941406 747.695312 " fill-opacity="1" fill-rule="nonzero"/><g clip-path="url(#696a7512fc)"><path fill="#ffffff" d="M 946.738281 476.1875 C 946.738281 506.175781 922.429688 530.488281 892.4375 530.488281 C 862.445312 530.488281 838.136719 506.175781 838.136719 476.1875 C 838.136719 446.195312 862.445312 421.882812 892.4375 421.882812 C 922.429688 421.882812 946.738281 446.195312 946.738281 476.1875 " fill-opacity="1" fill-rule="nonzero"/></g><g clip-path="url(#22278266a7)"><path fill="#ffffff" d="M 1001.039062 1290.707031 C 1001.039062 1330.695312 960.519531 1363.109375 910.539062 1363.109375 C 860.554688 1363.109375 820.035156 1330.695312 820.035156 1290.707031 C 820.035156 1250.722656 860.554688 1218.308594 910.539062 1218.308594 C 960.519531 1218.308594 1001.039062 1250.722656 1001.039062 1290.707031 " fill-opacity="1" fill-rule="nonzero"/></g><path fill="#ffffff" d="M 910.539062 802.765625 L 874.335938 802.765625 L 874.335938 476.1875 L 910.539062 476.1875 L 910.539062 802.765625 " fill-opacity="1" fill-rule="nonzero"/></g></g></g></svg>