<svg xmlns="http://www.w3.org/2000/svg" xmlns:xlink="http://www.w3.org/1999/xlink" width="2380" zoomAndPan="magnify" viewBox="0 0 1784.88 1784.99993" height="2380" preserveAspectRatio="xMidYMid meet" version="1.0"><defs><g/><clipPath id="864dc24ccf"><path d="M 0 0.0585938 L 1784.761719 0.0585938 L 1784.761719 1784.9375 L 0 1784.9375 Z M 0 0.0585938 " clip-rule="nonzero"/></clipPath><clipPath id="82b5eab100"><path d="M 0 0.0585938 L 1784.761719 0.0585938 L 1784.761719 1784.9375 L 0 1784.9375 Z M 0 0.0585938 " clip-rule="nonzero"/></clipPath><clipPath id="1f5202f860"><path d="M 425 0.0585938 L 1391 0.0585938 L 1391 1784.9375 L 425 1784.9375 Z M 425 0.0585938 " clip-rule="nonzero"/></clipPath><clipPath id="d38a41be5e"><rect x="0" width="966" y="0" height="1785"/></clipPath><clipPath id="555b0b505f"><rect x="0" width="1785" y="0" height="1785"/></clipPath></defs><g clip-path="url(#864dc24ccf)"><path fill="#ffffff" d="M 0 0.0585938 L 1784.878906 0.0585938 L 1784.878906 1784.941406 L 0 1784.941406 Z M 0 0.0585938 " fill-opacity="1" fill-rule="nonzero"/><g transform="matrix(1, 0, 0, 1, 0, -0.000000000000097387)"><g clip-path="url(#555b0b505f)"><g clip-path="url(#82b5eab100)"><path fill="#950edb" d="M 0 0.0585938 L 1785 0.0585938 L 1785 1785.058594 L 0 1785.058594 Z M 0 0.0585938 " fill-opacity="1" fill-rule="nonzero"/></g><g clip-path="url(#1f5202f860)"><g transform="matrix(1, 0, 0, 1, 425, -0.000000000000097387)"><g clip-path="url(#d38a41be5e)"><g fill="#ffffff" fill-opacity="1"><g transform="translate(1.649533, 1517.830738)"><g><path d="M 618.359375 15 C 545.023438 15 488.351562 -1.664062 448.34375 -35 C 408.34375 -68.332031 378.898438 -103.890625 360.015625 -141.671875 L 346.6875 -141.671875 L 346.6875 0 L 85 0 L 85 -1251.71875 L 346.6875 -1251.71875 L 346.6875 -751.703125 L 360.015625 -751.703125 C 375.566406 -785.035156 403.617188 -818.085938 444.171875 -850.859375 C 484.734375 -883.640625 542.238281 -900.03125 616.6875 -900.03125 C 726.695312 -900.03125 811.421875 -858.914062 870.859375 -776.6875 C 930.304688 -694.46875 960.03125 -582.800781 960.03125 -441.6875 C 960.03125 -302.789062 930.304688 -191.953125 870.859375 -109.171875 C 811.421875 -26.390625 727.253906 15 618.359375 15 Z M 521.6875 -190 C 581.6875 -190 625.851562 -215 654.1875 -265 C 682.519531 -315.007812 696.6875 -373.90625 696.6875 -441.6875 C 696.6875 -509.46875 682.519531 -567.523438 654.1875 -615.859375 C 625.851562 -664.191406 581.6875 -688.359375 521.6875 -688.359375 C 461.6875 -688.359375 417.519531 -663.910156 389.1875 -615.015625 C 360.851562 -566.128906 346.6875 -508.351562 346.6875 -441.6875 C 346.6875 -373.90625 361.128906 -315.007812 390.015625 -265 C 418.898438 -215 462.789062 -190 521.6875 -190 Z M 521.6875 -190 "/></g></g></g></g></g></g></g></g></g></svg>