<svg xmlns="http://www.w3.org/2000/svg" xmlns:xlink="http://www.w3.org/1999/xlink" width="2380" zoomAndPan="magnify" viewBox="0 0 1784.88 1784.99993" height="2380" preserveAspectRatio="xMidYMid meet" version="1.0"><defs><g/><clipPath id="ccf8f1f3f9"><path d="M 280 0.0585938 L 1426 0.0585938 L 1426 1784.9375 L 280 1784.9375 Z M 280 0.0585938 " clip-rule="nonzero"/></clipPath><clipPath id="2b2d44ecc0"><path d="M 0.300781 0.0585938 L 1145.503906 0.0585938 L 1145.503906 1784.9375 L 0.300781 1784.9375 Z M 0.300781 0.0585938 " clip-rule="nonzero"/></clipPath><clipPath id="abe79e92e2"><rect x="0" width="1146" y="0" height="1785"/></clipPath><clipPath id="9b0902d7d1"><path d="M 677.019531 170 L 1098.519531 170 L 1098.519531 337 L 677.019531 337 Z M 677.019531 170 " clip-rule="nonzero"/></clipPath><clipPath id="b1900a6148"><rect x="0" width="1146" y="0" height="1785"/></clipPath></defs><g clip-path="url(#ccf8f1f3f9)"><g transform="matrix(1, 0, 0, 1, 280, -0.000000000000097387)"><g clip-path="url(#b1900a6148)"><g clip-path="url(#2b2d44ecc0)"><g transform="matrix(1, 0, 0, 1, 0, -0.000000000000097387)"><g clip-path="url(#abe79e92e2)"><g fill="#950edb" fill-opacity="1"><g transform="translate(1.710125, 1650.72159)"><g><path d="M 689.75 13.828125 C 598.832031 13.828125 524.382812 -8.566406 466.40625 -53.359375 C 408.4375 -98.160156 363.644531 -151.519531 332.03125 -213.4375 L 318.1875 -213.4375 L 318.1875 0 L 146.25 0 L 146.25 -1482.25 L 318.1875 -1482.25 L 318.1875 -847.84375 L 332.03125 -847.84375 C 361.007812 -908.457031 403.828125 -960.503906 460.484375 -1003.984375 C 517.140625 -1047.460938 591.582031 -1069.203125 683.8125 -1069.203125 C 777.363281 -1069.203125 857.40625 -1045.8125 923.9375 -999.03125 C 990.476562 -952.257812 1040.875 -887.703125 1075.125 -805.359375 C 1109.382812 -723.015625 1126.515625 -630.457031 1126.515625 -527.6875 C 1126.515625 -424.914062 1109.382812 -332.6875 1075.125 -251 C 1040.875 -169.3125 990.804688 -104.75 924.921875 -57.3125 C 859.046875 -9.882812 780.65625 13.828125 689.75 13.828125 Z M 636.375 -132.421875 C 739.144531 -132.421875 817.210938 -169.96875 870.578125 -245.0625 C 923.941406 -320.164062 950.625 -414.375 950.625 -527.6875 C 950.625 -639.675781 924.269531 -733.21875 871.5625 -808.3125 C 818.863281 -883.414062 740.46875 -920.96875 636.375 -920.96875 C 533.613281 -920.96875 455.550781 -883.414062 402.1875 -808.3125 C 348.820312 -733.21875 322.140625 -639.675781 322.140625 -527.6875 C 322.140625 -415.6875 349.148438 -321.804688 403.171875 -246.046875 C 457.191406 -170.296875 534.925781 -132.421875 636.375 -132.421875 Z M 636.375 -132.421875 "/></g></g></g></g></g></g><g clip-path="url(#9b0902d7d1)"><path fill="#950edb" d="M 1097.957031 236.636719 C 1096.792969 231.957031 1097.609375 224.453125 1096.605469 222.5 C 1094.988281 219.359375 1093.429688 216.234375 1090.765625 213.773438 C 1085.691406 209.082031 1080.964844 207.9375 1078.75 206.914062 C 1076.367188 205.808594 1077.421875 208.101562 1073.378906 203.605469 C 1067.625 197.210938 1060.796875 196.980469 1057.714844 196.457031 C 1055.273438 196.046875 1052.773438 198.222656 1051.4375 196.484375 C 1050.761719 195.601562 1049.847656 194.902344 1049.3125 193.949219 C 1046.105469 188.238281 1036.503906 183.898438 1030.59375 184.007812 C 1029.578125 184.027344 1026.917969 184.101562 1026.542969 183.777344 C 1022.476562 180.253906 1016.886719 179.265625 1012.863281 178.746094 C 1011.496094 178.566406 1010.070312 179.085938 1008.753906 179.136719 C 1006.769531 179.214844 1005.183594 180.226562 1003.363281 180.605469 C 998.496094 181.625 1001.324219 179.175781 993.933594 175.722656 C 989.488281 173.644531 987.46875 173.316406 985.496094 173.398438 C 984.292969 173.445312 982.421875 172.046875 978.199219 173.191406 C 974.714844 174.132812 972.417969 172.761719 970.46875 172.15625 C 969.285156 171.785156 968 171.960938 966.949219 171.539062 C 962.957031 169.945312 953.570312 171.671875 949.035156 176.183594 C 948.777344 176.441406 948.355469 176.464844 947.988281 176.109375 C 946.972656 175.128906 945.660156 174.589844 944.488281 173.859375 C 941.621094 172.066406 938.460938 171.707031 935.273438 171.261719 C 933.933594 171.074219 932.632812 171.527344 931.347656 171.558594 C 928.621094 171.628906 926.160156 172.535156 923.65625 173.359375 C 918.960938 174.914062 919.808594 173.425781 917.375 173.476562 C 910.671875 173.621094 909.382812 172.609375 902.257812 176.214844 C 897.402344 178.667969 896.785156 181.652344 895.46875 180.9375 C 892.734375 179.457031 889.921875 178.164062 886.753906 178.046875 C 884.753906 177.976562 882.582031 177.636719 880.78125 178.261719 C 878.527344 179.042969 875.933594 178.59375 873.90625 180.386719 C 873.289062 180.933594 869.332031 182.953125 868.21875 182.875 C 855.761719 181.96875 856.125 183.996094 854.265625 184.5625 C 850.851562 185.601562 848.203125 187.660156 846.0625 190.433594 C 843.964844 193.148438 840.964844 188.261719 831.117188 189.835938 C 821.566406 191.359375 820.242188 196.175781 814.921875 195.820312 C 812.074219 195.632812 809.410156 196.710938 806.734375 197.535156 C 802.632812 198.796875 799.578125 201.53125 797.035156 204.824219 C 794.042969 208.703125 793.753906 206.636719 792.121094 206.707031 C 782.542969 207.117188 783.605469 206.53125 778.179688 209.105469 C 775.167969 210.53125 768.765625 215.246094 767.960938 216.253906 C 767.726562 216.546875 753.414062 218.378906 748.984375 231.523438 C 748.804688 232.054688 748.53125 232.542969 747.882812 232.492188 C 746.230469 232.363281 744.648438 232.929688 743.011719 232.917969 C 736.609375 232.871094 726.851562 241.320312 725.105469 244.136719 C 723.222656 247.167969 719.453125 247.023438 714.265625 252.773438 C 705.726562 262.238281 710.761719 267.167969 706.199219 267.058594 C 704.222656 267.011719 702.238281 268.640625 701.601562 268.808594 C 697.71875 269.820312 692.984375 276.003906 691.617188 277.421875 C 686.953125 282.261719 688.683594 283.988281 685.050781 287.046875 C 679.613281 291.628906 677.191406 299.019531 677.359375 306.265625 C 677.410156 308.558594 677.070312 311.1875 679.804688 312.527344 C 680.011719 312.628906 680.238281 313.007812 680.207031 313.226562 C 679.859375 315.964844 685.070312 321.480469 687.074219 323.382812 C 693.359375 329.359375 695.074219 324.851562 703.226562 330.457031 C 704.097656 331.058594 704.734375 331.285156 705.710938 331.085938 C 710.855469 330.050781 715.867188 330.519531 720.742188 332.476562 C 723.480469 333.574219 728.5625 332.136719 736.230469 336.539062 C 736.539062 336.714844 737.054688 337.039062 737.277344 336.570312 C 737.785156 335.496094 739.019531 334.824219 738.882812 333.371094 C 738.566406 329.902344 740.28125 331.933594 740.941406 331.652344 C 743.257812 330.664062 743.59375 331.894531 749.945312 330.90625 C 750.148438 324.289062 753.277344 318.054688 757.457031 312.914062 C 757.496094 312.8125 757.5625 312.722656 757.667969 312.65625 C 762.558594 306.761719 768.535156 303.59375 772.460938 302.957031 C 786.207031 292.335938 795.824219 285.390625 806.625 281.527344 C 807.65625 279.71875 817.519531 271.246094 818.882812 267.214844 C 818.988281 266.910156 819.070312 266.605469 819.21875 266.351562 C 819.535156 264.644531 820.875 263.132812 822.558594 262.644531 C 827.945312 261.09375 830.351562 258.179688 833.328125 258.425781 C 833.46875 258.257812 833.636719 258.097656 833.835938 257.957031 C 837.621094 255.304688 837.152344 253.578125 839.503906 253.484375 C 840.179688 253.457031 841.175781 253.636719 841.523438 252.992188 C 841.9375 252.21875 842.285156 252.261719 842.863281 252.605469 C 844.191406 253.402344 851.429688 249.035156 852.097656 248.628906 C 852.597656 248.328125 853.019531 247.703125 853.550781 247.34375 C 854.277344 245.957031 855.894531 244.910156 857.378906 244.398438 C 857.695312 244.066406 858.054688 243.90625 858.472656 244.097656 C 859.5625 243.875 860.699219 243.851562 861.78125 244.050781 C 865.792969 243.363281 865.445312 245.195312 867.003906 243.9375 C 869.210938 242.152344 870.828125 244.609375 871.734375 243.089844 C 872.691406 241.488281 877 238.441406 880.867188 239.742188 C 883.96875 240.785156 888.234375 238.054688 890.671875 239.550781 C 891.480469 240.046875 892.042969 240.808594 893.410156 240.160156 C 896.824219 238.53125 897.464844 241.914062 899.421875 241.730469 C 900.152344 241.660156 902.683594 239.082031 902.757812 238.339844 C 902.808594 237.835938 902.902344 237.328125 903.394531 237.160156 C 903.933594 236.972656 903.972656 237.714844 904.398438 237.894531 C 904.75 236.769531 905.492188 235.949219 906.601562 236.652344 C 908.40625 237.800781 908.992188 234.574219 912.066406 235.417969 C 913.515625 235.816406 914.027344 234.320312 915.589844 234.789062 C 918.113281 235.539062 916.664062 233.519531 918.074219 233.492188 C 926.058594 233.328125 926.195312 234.433594 929.382812 234.011719 C 930.667969 233.839844 931.8125 232.890625 932.976562 232.992188 C 935.761719 233.238281 938.183594 232.199219 940.4375 231.007812 C 941.632812 230.375 942.621094 230.460938 945.441406 231.953125 C 948.238281 230.582031 953.453125 230.15625 959.910156 232.867188 C 962.101562 230 961.992188 233.507812 971.449219 234.894531 C 977.933594 235.839844 983.417969 233.914062 985.144531 235.0625 C 987.457031 236.597656 986.828125 237.015625 990.417969 238.527344 C 993.667969 238.886719 995.964844 240.757812 998.082031 242.078125 C 1001.460938 242.289062 1011.597656 244.882812 1013.773438 244.726562 C 1014.410156 244.683594 1015.027344 244.730469 1015.714844 245.046875 C 1019.136719 246.621094 1017.660156 245.339844 1019.824219 246.144531 C 1021.882812 246.199219 1023.945312 246.5 1025.972656 247 C 1028.867188 246.644531 1031.875 250.28125 1034.898438 249.433594 C 1035.722656 249.199219 1036.121094 249.960938 1036.707031 250.246094 C 1036.925781 250.355469 1036.1875 250.523438 1036.015625 251.082031 C 1037.128906 250.988281 1037.828125 251.238281 1038.003906 252.460938 C 1038.542969 252.820312 1039.074219 253.191406 1039.59375 253.574219 C 1040.6875 253.644531 1041.664062 253.28125 1042.636719 252.761719 C 1047.734375 250.050781 1044.757812 253.023438 1054.367188 254.886719 C 1056.695312 255.339844 1058.9375 256.121094 1061.398438 255.722656 C 1063.457031 255.386719 1063.871094 255.820312 1064.242188 257.855469 C 1064.507812 259.332031 1069.28125 267.019531 1071.261719 268.085938 C 1072.558594 268.78125 1072.199219 269.824219 1071.253906 270.644531 C 1070.582031 271.226562 1070.996094 271.632812 1071.558594 271.574219 C 1073.53125 271.375 1072.996094 270.5625 1075.503906 269.5 C 1076.679688 269 1077.730469 268.507812 1078.574219 267.445312 C 1079.144531 266.730469 1080.125 265.808594 1081.164062 266.472656 C 1083.28125 267.828125 1082.21875 264.351562 1088.605469 259.304688 C 1091.089844 257.34375 1088.359375 257.007812 1089.496094 256.042969 C 1091.171875 254.625 1092.246094 252.71875 1093.59375 251.039062 C 1094.027344 250.503906 1094.613281 250.132812 1095.054688 249.5625 C 1097.109375 246.886719 1097.199219 243.640625 1097.808594 240.554688 C 1098.058594 239.277344 1098.261719 237.859375 1097.957031 236.636719 Z M 1097.957031 236.636719 " fill-opacity="1" fill-rule="nonzero"/></g><path fill="#950edb" d="M 955.871094 473.566406 C 956.023438 473.761719 956.109375 473.824219 956.132812 473.90625 C 956.726562 476.167969 959.519531 477.019531 959.742188 479.472656 C 960.066406 483.058594 962.03125 480.296875 964.394531 484.746094 C 965.765625 487.335938 967.929688 489.507812 968.582031 492.472656 C 968.785156 493.40625 969.308594 494.753906 968.898438 495.242188 C 967.835938 496.503906 967.863281 498.082031 967.148438 499.414062 C 966.132812 501.3125 964.433594 502.777344 963.761719 504.898438 C 963.621094 505.347656 963.230469 505.996094 962.449219 505.757812 C 962.367188 505.730469 962.179688 505.765625 962.175781 505.792969 C 961.867188 507.839844 959.410156 507.347656 958.660156 508.71875 C 957.925781 510.0625 956.527344 510.398438 955.4375 510.839844 C 953.679688 511.546875 953.378906 513.140625 952.53125 514.355469 C 951.109375 516.402344 951.78125 518.917969 951.375 521.203125 C 951.257812 521.867188 954.148438 525.15625 955.304688 527.730469 C 958.898438 535.746094 958.34375 535.445312 958.429688 539.25 C 958.449219 540.140625 956.746094 541.667969 955.84375 541.710938 C 954.085938 541.792969 952.957031 541.175781 952.398438 541.808594 C 951.039062 543.347656 949.328125 544.738281 949.203125 547.125 C 948.777344 555.039062 951.121094 549.59375 947.816406 558.574219 C 945.917969 563.730469 944.699219 564.933594 945.816406 565.828125 C 947.53125 567.207031 947.621094 568.289062 949.058594 579.167969 C 949.464844 582.214844 950.992188 589.28125 948.183594 590.183594 C 947.589844 590.375 947.609375 594.21875 949.636719 598.585938 C 950.71875 600.917969 953.289062 605.769531 948.824219 607.144531 C 947.476562 607.558594 944.761719 607.390625 942.988281 612.738281 C 942.222656 615.042969 944.445312 615.238281 944.664062 619.226562 C 945.089844 627.078125 934.921875 629.941406 934.480469 617.738281 C 934.308594 613.054688 932.453125 614.292969 933.027344 612.160156 C 933.636719 609.917969 931.617188 610.917969 932.164062 609.054688 C 932.894531 606.5625 931.378906 606.066406 930.941406 603.484375 C 930.710938 602.140625 929.765625 601.34375 928.792969 600.554688 C 928.167969 600.050781 928 599.15625 927.421875 598.675781 C 925.09375 596.734375 923.550781 594.171875 921.878906 591.730469 C 921.5 591.171875 921.503906 590.21875 921.230469 589.449219 C 920.625 587.75 919.625 586.246094 918.90625 584.605469 C 918.460938 583.59375 918.753906 582.535156 918.164062 581.589844 C 917.789062 580.992188 917.039062 580.332031 917.015625 579.933594 C 916.910156 578.382812 914.636719 577.734375 915.609375 575.625 C 916.242188 574.25 914.8125 568.839844 916.144531 566.019531 C 916.824219 564.574219 915.839844 563.269531 916.089844 561.886719 C 916.570312 559.238281 916.605469 556.546875 917.257812 553.875 C 917.796875 551.664062 918.730469 549.46875 918.730469 547.109375 C 918.726562 545.449219 919.386719 543.890625 919.488281 542.210938 C 919.582031 540.644531 919.289062 538.980469 920.046875 537.464844 C 920.855469 535.84375 918.734375 537.238281 918.992188 534.128906 C 919.050781 533.433594 917.902344 533.605469 918.011719 532.859375 C 918.1875 531.707031 917.285156 530.890625 916.976562 529.894531 C 915.230469 524.277344 910.644531 524.121094 909.75 523.304688 C 908.300781 521.984375 906.914062 523.082031 905.5 523.109375 C 904.003906 523.136719 902.503906 522.878906 900.984375 522.746094 C 901.113281 522.273438 901.683594 522.765625 901.871094 522.382812 C 901.640625 522.199219 900.320312 522.136719 899.675781 522.421875 C 898.242188 523.054688 898.8125 520.765625 897.835938 521.976562 C 897.789062 522.035156 897.628906 522.09375 897.613281 522.074219 C 896.539062 520.792969 894.746094 521.347656 893.621094 520.652344 C 891.886719 519.578125 889.84375 518.824219 888.566406 517.085938 C 888.136719 516.503906 887.363281 516.378906 887.019531 515.625 C 886.367188 514.1875 887.980469 511.347656 887.179688 509.933594 C 887.023438 509.664062 886.867188 509.363281 887.242188 509.199219 C 888.339844 508.710938 887.160156 506.335938 888.039062 504.621094 C 889.050781 502.636719 888.484375 500.5 888.617188 498.433594 C 889.246094 488.65625 887.078125 484.027344 889.855469 482.632812 C 891.515625 481.800781 891.023438 480.015625 893.980469 478.625 C 896.382812 477.492188 893.699219 474.582031 896.359375 473.875 C 897.390625 473.597656 898.027344 472.476562 899.359375 472.6875 C 900.421875 472.855469 900.9375 471.5 901.976562 471.257812 C 902.386719 471.164062 902.777344 470.863281 903.222656 470.953125 C 904.394531 471.195312 905.898438 470.703125 906.371094 470.257812 C 907.652344 469.050781 909.121094 469.585938 910.414062 469.121094 C 911.871094 468.597656 913.371094 468.277344 914.84375 467.863281 C 916.574219 467.375 918.210938 466.589844 920.054688 466.878906 C 920.691406 466.976562 920.636719 466.296875 921.027344 466.25 C 922.140625 466.117188 923.101562 465.480469 924.339844 465.605469 C 926.800781 465.855469 928.460938 464.019531 931.128906 464.273438 C 932.394531 464.394531 933.691406 463.664062 935.03125 463.660156 C 938.21875 463.652344 941.996094 461.921875 943.648438 462.183594 C 943.933594 462.230469 943.867188 462.039062 943.921875 461.851562 C 944.234375 460.84375 945.3125 460.410156 946.433594 460.78125 C 948.40625 461.433594 950.246094 461.515625 951.117188 464.121094 C 951.222656 464.433594 951.144531 464.851562 951.726562 464.609375 C 952.105469 464.453125 952.359375 464.601562 951.980469 464.980469 C 951.652344 465.3125 951.820312 465.628906 952.101562 465.5625 C 952.964844 465.351562 953.433594 466.140625 954.21875 466.25 C 956.90625 466.621094 955.582031 470.09375 957.0625 472.222656 C 957.953125 473.503906 956.4375 473.167969 955.871094 473.566406 Z M 902.777344 510.140625 C 908.65625 508.441406 911.335938 509.054688 910.359375 506.828125 C 909.613281 505.125 909.753906 496.757812 905.792969 494.242188 C 904.128906 493.183594 904.9375 491.976562 903.476562 491.214844 C 898.992188 488.875 898.40625 488.894531 897.921875 489.84375 C 895.507812 494.539062 895.617188 502.367188 896.152344 503.378906 C 897.707031 506.296875 894.902344 509.074219 897.925781 510.140625 C 899 510.519531 901.082031 510.628906 902.777344 510.140625 Z M 951.410156 479.558594 C 950.476562 480.820312 949.449219 481.886719 948.664062 483.238281 C 947.972656 484.421875 947.585938 485.988281 946.144531 486.691406 C 942.765625 488.335938 944.171875 495.328125 944.898438 498.796875 C 944.972656 499.15625 945.066406 499.53125 945.507812 499.464844 C 949.6875 498.808594 948.316406 499.160156 956.125 494.152344 C 957.980469 492.964844 956.34375 491.351562 957.058594 490.480469 C 957.453125 490.003906 956.023438 487.226562 955.472656 487.285156 C 954.734375 487.371094 955.007812 486.898438 954.824219 486.644531 C 954.285156 485.902344 955.226562 485.007812 954.503906 484.292969 C 953.171875 482.972656 952.953125 480.929688 951.410156 479.558594 Z M 937.117188 598.335938 C 937.171875 599.304688 937.082031 600.585938 938.226562 600.617188 C 940.089844 600.675781 939.371094 597.015625 939.695312 596.597656 C 941.324219 594.507812 937.566406 591.152344 937.253906 588.210938 C 937.171875 587.441406 937.039062 586.617188 936.691406 585.941406 C 935.054688 582.773438 934.523438 579.25 933.453125 575.910156 C 931.570312 570.035156 933.113281 565.238281 931.203125 565.222656 C 928.554688 565.203125 932.550781 573.582031 930.429688 576.152344 C 930.207031 576.421875 930.546875 576.789062 930.777344 577.050781 C 933.085938 579.632812 932.421875 585.277344 935.316406 591.429688 C 936.316406 593.554688 937.882812 595.71875 937.117188 598.335938 Z M 937.117188 598.335938 " fill-opacity="1" fill-rule="nonzero"/><path fill="#950edb" d="M 895.855469 474.390625 L 749.445312 331.4375 L 750.476562 330.382812 L 890.722656 467.308594 L 771.964844 303.316406 L 773.160156 302.453125 L 896.964844 473.425781 Z M 895.855469 474.390625 " fill-opacity="1" fill-rule="nonzero"/><path fill="#950edb" d="M 895.699219 474.164062 L 807.519531 279.910156 L 808.859375 279.300781 L 893.3125 465.347656 L 836.582031 254.859375 L 838.003906 254.480469 L 897.082031 473.679688 Z M 895.699219 474.164062 " fill-opacity="1" fill-rule="nonzero"/><path fill="#950edb" d="M 895.636719 473.9375 L 871.015625 243.167969 L 872.480469 243.011719 L 895.695312 460.597656 L 896.726562 240.75 L 898.199219 240.757812 L 897.105469 473.878906 Z M 895.636719 473.9375 " fill-opacity="1" fill-rule="nonzero"/><path fill="#950edb" d="M 948.894531 461.734375 L 947.605469 461.023438 L 1041.988281 252.460938 L 1043.324219 253.070312 L 952.941406 452.777344 L 1070.96875 271.171875 L 1072.191406 271.980469 Z M 948.894531 461.734375 " fill-opacity="1" fill-rule="nonzero"/><path fill="#950edb" d="M 947.589844 461.140625 L 1007.160156 243.582031 L 1008.582031 243.972656 L 949.011719 461.53125 Z M 947.589844 461.140625 " fill-opacity="1" fill-rule="nonzero"/><path fill="#950edb" d="M 949.003906 461.453125 L 947.539062 461.339844 L 944.71875 231.960938 L 946.191406 231.945312 L 948.902344 452.4375 L 982.488281 234.539062 L 983.941406 234.765625 Z M 949.003906 461.453125 " fill-opacity="1" fill-rule="nonzero"/><path fill="#950edb" d="M 945.730469 460.730469 L 965.5 233.558594 L 966.96875 233.6875 L 947.195312 460.859375 Z M 945.730469 460.730469 " fill-opacity="1" fill-rule="nonzero"/><path fill="#950edb" d="M 895.65625 473.816406 L 914.867188 234.734375 L 916.335938 234.851562 L 897.125 473.933594 Z M 895.65625 473.816406 " fill-opacity="1" fill-rule="nonzero"/></g></g></g></svg>